<!DOCTYPE svg PUBLIC "-//W3C//DTD SVG 1.1//EN" "http://www.w3.org/Graphics/SVG/1.1/DTD/svg11.dtd">
<!-- Uploaded to: SVG Repo, www.svgrepo.com, Transformed by: SVG Repo Mixer Tools -->
<svg fill="#ffffff" height="800px" width="800px" version="1.1" id="Layer_1" xmlns="http://www.w3.org/2000/svg" xmlns:xlink="http://www.w3.org/1999/xlink" viewBox="0 0 491.213 491.213" xml:space="preserve" transform="matrix(-1, 0, 0, 1, 0, 0)" stroke="#ffffff">
<g id="SVGRepo_bgCarrier" stroke-width="0"/>
<g id="SVGRepo_tracerCarrier" stroke-linecap="round" stroke-linejoin="round"/>
<g id="SVGRepo_iconCarrier"> <g> <path d="M318.713,73.106c-32.723,0-64.571,9.208-92.103,26.628c-26.772,16.94-48.365,40.868-62.445,69.196l26.865,13.353 c24.272-48.838,73.198-79.176,127.683-79.176c78.575,0,142.5,63.925,142.5,142.5s-63.925,142.5-142.5,142.5 c-54.484,0-103.41-30.338-127.683-79.176l-26.865,13.353c14.08,28.328,35.673,52.256,62.445,69.196 c27.531,17.42,59.38,26.628,92.103,26.628c95.117,0,172.5-77.383,172.5-172.5S413.83,73.106,318.713,73.106z"/> <polygon points="318.713,260.606 318.713,230.606 57.426,230.606 91.819,196.213 70.606,175 0,245.607 70.606,316.213 91.819,295 57.425,260.606 "/> </g> </g>
</svg>